<?xml version="1.0" encoding="UTF-8" ?>
<!DOCTYPE svg PUBLIC "-//W3C//DTD SVG 1.1//EN" "http://www.w3.org/Graphics/SVG/1.1/DTD/svg11.dtd">
<svg width="240pt" height="240pt" viewBox="0 0 240 240" version="1.1" xmlns="http://www.w3.org/2000/svg">
<g id="#fdc600ff">
<path fill="#fdc600" opacity="1.00" d=" M 114.45 0.00 L 125.38 0.00 C 148.61 1.12 171.51 9.02 190.27 22.79 C 214.62 40.37 231.96 67.40 237.50 96.94 C 241.33 116.74 240.11 137.52 233.90 156.71 C 226.25 180.60 210.81 201.86 190.56 216.63 C 171.05 230.92 147.13 239.15 122.95 239.61 C 94.83 240.53 66.53 230.99 44.69 213.27 C 18.12 192.15 1.45 159.31 0.00 125.40 L 0.00 114.44 C 1.37 79.57 18.96 45.81 46.77 24.73 C 66.06 9.74 90.07 1.08 114.45 0.00 M 101.63 18.49 C 77.54 22.71 55.11 35.72 39.69 54.73 C 68.80 54.92 97.91 54.73 127.02 54.83 C 140.99 54.37 155.61 57.58 166.86 66.23 C 174.72 72.04 180.69 80.56 182.89 90.14 C 185.26 99.78 184.16 110.38 178.90 118.91 C 171.33 132.57 156.50 140.82 141.37 143.07 C 157.34 160.05 173.32 177.02 189.31 193.99 C 217.26 168.82 228.17 127.18 217.63 91.27 C 210.22 64.76 191.48 41.67 167.09 28.92 C 147.21 18.37 123.80 14.70 101.63 18.49 M 20.45 91.91 C 14.15 114.02 15.91 138.14 24.59 159.36 C 33.03 179.87 48.88 196.87 67.73 208.29 C 98.53 226.49 139.25 226.56 170.07 208.38 C 144.45 180.84 118.86 153.27 93.19 125.79 C 86.30 132.78 79.59 139.94 72.62 146.86 C 71.83 139.92 72.00 132.94 72.00 125.98 C 72.19 113.07 71.61 100.13 72.31 87.25 C 91.28 87.16 110.26 87.16 129.24 87.25 C 122.59 94.47 115.78 101.53 109.05 108.67 C 111.03 111.71 113.84 114.05 116.20 116.77 C 117.83 118.38 119.35 120.74 121.91 120.76 C 130.20 120.90 139.04 120.89 146.50 116.75 C 151.50 114.14 155.86 109.73 157.16 104.10 C 159.40 96.85 156.22 88.36 149.95 84.13 C 143.51 79.81 135.72 77.78 128.00 77.85 C 93.92 77.88 59.85 77.83 25.78 77.87 C 23.26 82.23 21.91 87.13 20.45 91.91 Z" />
<path fill="#fdc600" opacity="1.00" d=" M 74.40 157.41 C 81.09 150.42 87.69 143.33 94.38 136.34 C 94.55 151.36 94.41 166.38 94.45 181.39 C 87.05 181.40 79.64 181.40 72.24 181.39 C 72.27 174.61 72.18 167.84 72.25 161.06 C 72.19 159.53 73.52 158.48 74.40 157.41 Z" />
</g>
<g id="#000000ff">
<path fill="#000000" opacity="1.00" d=" M 101.63 18.49 C 123.80 14.70 147.21 18.37 167.09 28.92 C 191.48 41.67 210.22 64.76 217.63 91.27 C 228.17 127.18 217.26 168.82 189.31 193.99 C 173.32 177.02 157.34 160.05 141.37 143.07 C 156.50 140.82 171.33 132.57 178.90 118.91 C 184.16 110.38 185.26 99.78 182.89 90.14 C 180.69 80.56 174.72 72.04 166.86 66.23 C 155.61 57.58 140.99 54.37 127.02 54.83 C 97.91 54.73 68.80 54.92 39.69 54.73 C 55.11 35.72 77.54 22.71 101.63 18.49 Z" />
<path fill="#000000" opacity="1.00" d=" M 20.45 91.91 C 21.91 87.13 23.26 82.23 25.78 77.87 C 59.85 77.83 93.92 77.88 128.00 77.85 C 135.72 77.78 143.51 79.81 149.95 84.13 C 156.22 88.36 159.40 96.85 157.16 104.10 C 155.86 109.73 151.50 114.14 146.50 116.75 C 139.04 120.89 130.20 120.90 121.91 120.76 C 119.35 120.74 117.83 118.38 116.20 116.77 C 113.84 114.05 111.03 111.71 109.05 108.67 C 115.78 101.53 122.59 94.47 129.24 87.25 C 110.26 87.16 91.28 87.16 72.31 87.25 C 71.61 100.13 72.19 113.07 72.00 125.98 C 72.00 132.94 71.83 139.92 72.62 146.86 C 79.59 139.94 86.30 132.78 93.19 125.79 C 118.86 153.27 144.45 180.84 170.07 208.38 C 139.25 226.56 98.53 226.49 67.73 208.29 C 48.88 196.87 33.03 179.87 24.59 159.36 C 15.91 138.14 14.15 114.02 20.45 91.91 M 74.40 157.41 C 73.52 158.48 72.19 159.53 72.25 161.06 C 72.18 167.84 72.27 174.61 72.24 181.39 C 79.64 181.40 87.05 181.40 94.45 181.39 C 94.41 166.38 94.55 151.36 94.38 136.34 C 87.69 143.33 81.09 150.42 74.40 157.41 Z" />
</g>
</svg>
